<svg viewBox="0 0 64 64" xmlns="http://www.w3.org/2000/svg"><path d="M52.708 20.849C52.708 8.185 44.584 0 32 0S11.292 8.185 11.292 20.849c0 10.556 16.311 31.747 18.175 34.118l2.278 2.928c-9.542.025-17.237 1.38-17.237 3.051 0 1.686 7.836 3.053 17.502 3.053s17.502-1.367 17.502-3.053c0-1.672-7.704-3.028-17.255-3.051l2.292-2.928c1.847-2.386 18.159-23.577 18.159-34.118zm-27.414-.014c0-3.604 3.002-6.526 6.706-6.526 3.704 0 6.706 2.922 6.706 6.526S35.704 27.361 32 27.361c-3.704 0-6.706-2.922-6.706-6.526z"/></svg>