<svg version="1.1" id="Layer_1" xmlns="http://www.w3.org/2000/svg" x="0" y="0" width="66" height="66" xml:space="preserve"><path fill="#D60949" d="M50.5 19.316c0-9.649-7.85-17.5-17.5-17.5s-17.5 7.851-17.5 17.5c0 6.159 3.205 11.575 8.029 14.694l8.574 20.804a.97.97 0 001.794 0l8.574-20.805c4.824-3.119 8.029-8.534 8.029-14.693z"/><path fill="#B20040" d="M33 55.415a.97.97 0 00.898-.601l8.574-20.805c4.822-3.12 8.027-8.535 8.027-14.693 0-9.649-7.85-17.5-17.5-17.5"/><circle fill="#D60949" cx="33" cy="61.88" r="2.304"/><circle fill="#EBF0F2" cx="33" cy="19.155" r="7.357"/><path fill="#C6D6DB" d="M33 11.798a7.357 7.357 0 010 14.714"/></svg>