<?xml version="1.0" ?><!DOCTYPE svg PUBLIC "-//W3C//DTD SVG 1.1//EN" "http://www.w3.org/Graphics/SVG/1.1/DTD/svg11.dtd"><svg viewBox="0 0 512.001 512.001" xmlns="http://www.w3.org/2000/svg" xmlns:xlink="http://www.w3.org/1999/xlink"><style>:root>svg{display:none}:root>svg:target{display:block}</style><svg viewBox="0 0 512 512" id="check" xmlns="http://www.w3.org/2000/svg"><path class="ast0" d="M434.8 49L174.2 309.7l-97.4-97.4L0 289.2l174.1 174.1 22.5-22.4 315.1-315.1L434.8 49z"/></svg><svg viewBox="0 0 64 64" id="location" xmlns="http://www.w3.org/2000/svg"><path d="M52.708 20.849C52.708 8.185 44.584 0 32 0S11.292 8.185 11.292 20.849c0 10.556 16.311 31.747 18.175 34.118l2.278 2.928c-9.542.025-17.237 1.38-17.237 3.051 0 1.686 7.836 3.053 17.502 3.053s17.502-1.367 17.502-3.053c0-1.672-7.704-3.028-17.255-3.051l2.292-2.928c1.847-2.386 18.159-23.577 18.159-34.118zm-27.414-.014c0-3.604 3.002-6.526 6.706-6.526 3.704 0 6.706 2.922 6.706 6.526S35.704 27.361 32 27.361c-3.704 0-6.706-2.922-6.706-6.526z"/></svg><svg viewBox="0 0 66 66" id="map-location" xmlns="http://www.w3.org/2000/svg"><path fill="#D60949" d="M50.5 19.316c0-9.649-7.85-17.5-17.5-17.5s-17.5 7.851-17.5 17.5c0 6.159 3.205 11.575 8.029 14.694l8.574 20.804a.97.97 0 001.794 0l8.574-20.805c4.824-3.119 8.029-8.534 8.029-14.693z"/><path fill="#B20040" d="M33 55.415a.97.97 0 00.898-.601l8.574-20.805c4.822-3.12 8.027-8.535 8.027-14.693 0-9.649-7.85-17.5-17.5-17.5"/><circle fill="#D60949" cx="33" cy="61.88" r="2.304"/><circle fill="#EBF0F2" cx="33" cy="19.155" r="7.357"/><path fill="#C6D6DB" d="M33 11.798a7.357 7.357 0 010 14.714"/></svg><svg viewBox="0 0 512.001 512.001" id="phone" xmlns="http://www.w3.org/2000/svg"><path d="M462.491 468.206l-33.938 33.937c-6.062 6.031-23.812 9.844-24.343 9.844-107.435.905-210.869-41.279-286.882-117.31C41.097 318.46-1.136 214.619.036 106.872c0-.063 3.891-17.312 9.938-23.312l33.937-33.968c12.453-12.437 36.295-18.062 52.998-12.5l7.156 2.406c16.703 5.562 34.155 23.999 38.78 40.967l17.093 62.717c4.64 17-1.594 41.186-14.031 53.623l-22.687 22.687c22.25 82.467 86.919 147.121 169.339 169.402l22.687-22.688c12.438-12.438 36.687-18.656 53.687-14.031l62.718 17.125c16.937 4.594 35.374 22.03 40.968 38.748l2.375 7.156c5.558 16.722-.066 40.565-12.503 53.002zM287.996 255.993h31.999c0-35.343-28.655-63.998-63.998-63.998v31.999c17.639 0 31.999 14.374 31.999 31.999zm127.996 0c0-88.373-71.623-159.996-159.995-159.996v32c70.591 0 127.996 57.436 127.996 127.996h31.999zM255.997 0v31.999c123.496 0 223.993 100.497 223.993 223.994h31.999C511.989 114.622 397.368 0 255.997 0z"/></svg><svg viewBox="0 0 32 32" id="time" xmlns="http://www.w3.org/2000/svg"><defs><style>.ecls-1{fill:none}</style></defs><g data-name="Layer 2" id="eLayer_2"><path d="M16 29a13 13 0 1113-13 13 13 0 01-13 13zm0-24a11 11 0 1011 11A11 11 0 0016 5z"/><path d="M21.5 22.5a1 1 0 01-.71-.29l-5.5-5.5A1 1 0 0115 16V8a1 1 0 012 0v7.59l5.21 5.2a1 1 0 010 1.42 1 1 0 01-.71.29z"/></g><path class="ecls-1" d="M0 0h32v32H0z" id="eframe"/></svg></svg>